PathFileType	4	(X/Y/Z)	3_coords_data.trc
DataRate	CameraRate	NumFrames	NumMarkers	Units	OrigDataRate	OrigDataStartFrame	OrigNumFrames
30.0	30.0	5	21	m	30.0	43	63
Frame#	Time	THUMB_TIP	THUMB_IP	THUMB_MCP	THUMB_CMC	INDEX_TIP	INDEX_DIP	INDEX_PIP	INDEX_MCP	MIDDLE_TIP	MIDDLE_DIP	MIDDLE_PIP	MIDDLE_MCP	RING_TIP	RING_DIP	RING_PIP	RING_MCP	PINKY_TIP	PINKY_DIP	PINKY_PIP	PINKY_MCP	WRIST
X1	Y1	Z1	X2	Y2	Z2	X3	Y3	Z3	X4	Y4	Z4	X5	Y5	Z5	X6	Y6	Z6	X7	Y7	Z7	X8	Y8	Z8	X9	Y9	Z9	X10	Y10	Z10	X11	Y11	Z11	X12	Y12	Z12	X13	Y13	Z13	X14	Y14	Z14	X15	Y15	Z15	X16	Y16	Z16	X17	Y17	Z17	X18	Y18	Z18	X19	Y19	Z19	X20	Y20	Z20	X21	Y21	Z21
42	1.4	-0.06442949676513672	-0.08061640167236328	0.9294520263671875	-0.07548359680175781	-0.07676490020751953	0.9555380249023437	-0.08433329772949219	-0.06922219848632813	0.9852899780273437	-0.094502197265625	-0.04568740081787109	1.0096400146484374	-0.05848210144042969	-0.0608922004699707	0.9041309814453125	-0.07891629791259766	-0.06482859802246094	0.9106119995117188	-0.09954299926757812	-0.06781919860839844	0.9235579833984375	-0.11693099975585937	-0.06711750030517578	0.96039501953125	-0.06846440124511718	-0.04299879837036133	0.9011959838867187	-0.08992680358886719	-0.04504759979248047	0.9020349731445313	-0.11347699737548828	-0.047458099365234374	0.9157899780273437	-0.1243550033569336	-0.04582580184936524	0.9571649780273438	-0.07736260223388672	-0.024763999938964845	0.911906005859375	-0.09727610015869141	-0.024114200592041016	0.9108909912109375	-0.11942400360107422	-0.025556699752807617	0.922447998046875	-0.12366600036621093	-0.02562569999694824	0.960406005859375	-0.08474929809570313	-0.0018360400199890132	0.9125419921875	-0.10025700378417969	-0.00029734998941421503	0.923260009765625	-0.11330899810791016	-0.0014462800025939941	0.9379459838867188	-0.11816999816894531	-0.00610306978225708	0.9658839721679687	-0.118427001953125	-0.027228700637817384	1.0363900146484375
43	1.4333333333333333	-0.06981410217285157	-0.07758170318603516	0.925541015625	-0.08053849792480469	-0.07328070068359376	0.9512689819335938	-0.08873419952392578	-0.06696199798583985	0.9815780029296876	-0.09720240020751954	-0.04424900054931641	1.0074299926757813	-0.06050740051269531	-0.053750598907470706	0.9006079711914062	-0.08141929626464844	-0.056208698272705075	0.9064910278320313	-0.10189399719238282	-0.058152400970458984	0.9195260009765625	-0.11875199890136719	-0.05899259948730469	0.9560750122070313	-0.06790059661865235	-0.03459209823608399	0.8977319946289063	-0.08938899993896485	-0.03484260177612305	0.8992420043945313	-0.11278800201416016	-0.036105899810791015	0.9132369995117188	-0.124552001953125	-0.03674340057373047	0.9541279907226563	-0.07523609924316406	-0.016377899169921876	0.9101680297851562	-0.09475789642333984	-0.013949899673461915	0.9099219970703125	-0.11725900268554687	-0.014316800117492676	0.9211079711914063	-0.12330999755859375	-0.01710460090637207	0.9592780151367187	-0.08009249877929688	0.006103059768676758	0.9145590209960938	-0.09598580169677734	0.008399709701538086	0.9246669921875	-0.10966899871826172	0.00736890983581543	0.9389359741210938	-0.1160790023803711	0.0013964400291442871	0.965885986328125	-0.1197770004272461	-0.025062200546264648	1.0345799560546876
44	1.4666666666666666	-0.07512169647216797	-0.07402290344238281	0.9213690185546874	-0.08561669921875	-0.06935350036621094	0.947385009765625	-0.09364479827880859	-0.06412229919433594	0.978030029296875	-0.10050700378417969	-0.04234130096435547	1.0053200073242188	-0.0627317008972168	-0.04695650100708008	0.8961439819335938	-0.08388009643554688	-0.048133598327636716	0.9026859741210937	-0.1040189971923828	-0.04927920150756836	0.91568701171875	-0.12058599853515625	-0.05114289855957031	0.9523930053710937	-0.06743890380859376	-0.026875699996948242	0.8934340209960937	-0.08881289672851563	-0.025736200332641603	0.8966320190429687	-0.11203500366210938	-0.026169700622558592	0.911448974609375	-0.12490699768066406	-0.028586299896240234	0.9517310180664063	-0.07314949798583985	-0.008731749534606934	0.9084849853515625	-0.09275489807128906	-0.005061110019683838	0.9091240234375	-0.11541100311279297	-0.004636650085449219	0.9207039794921875	-0.122947998046875	-0.009331649780273437	0.9581580200195312	-0.07640989685058594	0.012452799797058106	0.9161430053710937	-0.0925260009765625	0.015414600372314452	0.9258159790039062	-0.10629299926757813	0.014622699737548829	0.9393400268554688	-0.11434300231933593	0.007858550071716309	0.9660549926757812	-0.12167500305175781	-0.02248159980773926	1.0323399658203125
45	1.5	-0.08076470184326172	-0.07098860168457032	0.9177760009765625	-0.09072460174560547	-0.06586869812011718	0.9439030151367187	-0.09840029907226562	-0.0611801986694336	0.9749240112304688	-0.10368199920654297	-0.04029330062866211	1.0034199829101562	-0.06490809631347656	-0.040614601135253905	0.8919190063476562	-0.0857217025756836	-0.04075479888916016	0.8993410034179687	-0.10572799682617187	-0.04148500061035156	0.912802978515625	-0.12226899719238281	-0.0439473991394043	0.9492890014648437	-0.067089599609375	-0.020069400787353517	0.88989501953125	-0.08825430297851562	-0.0178882999420166	0.8945059814453125	-0.11128299713134765	-0.017815799713134767	0.9099619750976562	-0.12511100006103515	-0.021301799774169922	0.9495479736328125	-0.07105930328369141	-0.002234080076217651	0.906760009765625	-0.09039949798583985	0.002383709907531738	0.9084710083007812	-0.11321399688720703	0.0034841799736022947	0.9200989990234375	-0.12253900146484376	-0.002684520006179809	0.9570280151367188	-0.07293270111083984	0.017599000930786132	0.9173170166015625	-0.08880770111083984	0.020976800918579102	0.9268510131835938	-0.10307599639892578	0.02043790054321289	0.9399099731445313	-0.11283899688720703	0.013231100082397461	0.966594970703125	-0.1236780014038086	-0.019799400329589843	1.0307099609375
46	1.5333333333333334	-0.08582479858398437	-0.0676708984375	0.9147449951171875	-0.09514289855957031	-0.06251570129394532	0.9412960205078125	-0.10261100006103516	-0.058221099853515625	0.9725460205078125	-0.1065260009765625	-0.03824280166625976	1.0018400268554688	-0.06678910064697266	-0.034645801544189454	0.88827099609375	-0.08755889892578125	-0.034465999603271485	0.8964849853515625	-0.10711599731445312	-0.03500849914550781	0.910593994140625	-0.12326000213623046	-0.03811899948120117	0.94685302734375	-0.06725559997558593	-0.013694000244140626	0.8869010009765625	-0.08835189819335937	-0.011155599594116212	0.8925869750976563	-0.11122799682617188	-0.010953599929809571	0.9087780151367187	-0.12532099914550782	-0.015559499740600585	0.9480449829101563	-0.0699561996459961	0.003402780055999756	0.9052269897460937	-0.08911789703369141	0.00855115032196045	0.907791015625	-0.11196800231933594	0.009906970024108886	0.9196530151367187	-0.12216000366210937	0.002600860118865967	0.9559349975585938	-0.07125769805908203	0.022221399307250977	0.9177869873046876	-0.08715260314941406	0.025684900283813476	0.927176025390625	-0.10151399993896484	0.025159400939941408	0.9398740234375	-0.11223400115966797	0.017624500274658204	0.9664240112304687	-0.12566500091552735	-0.01720039939880371	1.0291500244140626
